HIERARCHY
ROOT root
{
	OFFSET 0.000000 0.000000 0.000000
	CHANNELS 6 Xposition Yposition Zposition Zrotation Yrotation Xrotation
	JOINT lhip
	{
		OFFSET 0.058581 -0.082280 -0.017664
		CHANNELS 3 Zrotation Yrotation Xrotation
		JOINT lknee
		{
			OFFSET 0.043451 -0.386469 0.008037
			CHANNELS 3 Zrotation Yrotation Xrotation
			JOINT lankle
			{
				OFFSET -0.014790 -0.426874 -0.037428
				CHANNELS 3 Zrotation Yrotation Xrotation
				JOINT ltoe
				{
					OFFSET 0.041054 -0.060286 0.122042
					CHANNELS 3 Zrotation Yrotation Xrotation
					End Site
					{
						OFFSET 0.000000 0.000000 0.000000
					}
				}
			}
		}
	}
	JOINT rhip
	{
		OFFSET -0.060310 -0.090513 -0.013543
		CHANNELS 3 Zrotation Yrotation Xrotation
		JOINT rknee
		{
			OFFSET -0.043257 -0.383688 -0.004843
			CHANNELS 3 Zrotation Yrotation Xrotation
			JOINT rankle
			{
				OFFSET 0.019056 -0.420046 -0.034562
				CHANNELS 3 Zrotation Yrotation Xrotation
				JOINT rtoe
				{
					OFFSET -0.034840 -0.062106 0.130323
					CHANNELS 3 Zrotation Yrotation Xrotation
					End Site
					{
						OFFSET 0.000000 0.000000 0.000000
					}
				}
			}
		}
	}
	JOINT lowerback
	{
		OFFSET 0.004439 0.124404 -0.038385
		CHANNELS 3 Zrotation Yrotation Xrotation
		JOINT upperback
		{
			OFFSET 0.004488 0.137956 0.026820
			CHANNELS 3 Zrotation Yrotation Xrotation
			JOINT chest
			{
				OFFSET -0.002265 0.056032 0.002855
				CHANNELS 3 Zrotation Yrotation Xrotation
				JOINT lowerneck
				{
					OFFSET -0.013390 0.211636 -0.033468
					CHANNELS 3 Zrotation Yrotation Xrotation
					JOINT upperneck
					{
						OFFSET 0.010113 0.088937 0.050410
						CHANNELS 3 Zrotation Yrotation Xrotation
						End Site
						{
							OFFSET 0.000000 0.000000 0.000000
						}
					}
				}
				JOINT lclavicle
				{
					OFFSET 0.071702 0.114000 -0.018898
					CHANNELS 3 Zrotation Yrotation Xrotation
					JOINT lshoulder
					{
						OFFSET 0.122921 0.045205 -0.019046
						CHANNELS 3 Zrotation Yrotation Xrotation
						JOINT lelbow
						{
							OFFSET 0.255332 -0.015649 -0.022946
							CHANNELS 3 Zrotation Yrotation Xrotation
							JOINT lwrist
							{
								OFFSET 0.265709 0.012698 -0.007375
								CHANNELS 3 Zrotation Yrotation Xrotation
								End Site
								{
									OFFSET 0.000000 0.000000 0.000000
								}
							}
						}
					}
				}
				JOINT rclavicle
				{
					OFFSET -0.082954 0.112472 -0.023707
					CHANNELS 3 Zrotation Yrotation Xrotation
					JOINT rshoulder
					{
						OFFSET -0.113228 0.046853 -0.008472
						CHANNELS 3 Zrotation Yrotation Xrotation
						JOINT relbow
						{
							OFFSET -0.260127 -0.014369 -0.031269
							CHANNELS 3 Zrotation Yrotation Xrotation
							JOINT rwrist
							{
								OFFSET -0.269108 0.006794 -0.006027
								CHANNELS 3 Zrotation Yrotation Xrotation
								End Site
								{
									OFFSET 0.000000 0.000000 0.000000
								}
							}
						}
					}
				}
			}
		}
	}
}
MOTION
Frames: 13
Frame Time: 0.033333
1.723304 0.743504 0.988401 -85.404887 3.078814 88.061083 3.608071 0.431215 3.319699 -3.069107 -14.346975 4.186568 5.131604 7.575456 -17.828951 0.000000 -0.000000 0.000000 2.668028 -1.149535 0.774545 3.082417 0.058065 10.003573 3.129454 -6.481982 -14.377675 0.000000 -0.000000 0.000000 -1.696282 0.242225 10.032256 1.836513 -3.092971 0.675549 1.482221 -2.553465 5.095706 3.193202 -4.317764 1.008482 -1.142891 -6.693857 -2.351581 -25.949008 7.520454 2.052509 -59.003221 -4.450849 5.814833 9.822199 -24.194287 5.168031 -4.836472 -0.226880 -9.425869 22.947801 -5.004167 -1.250158 62.724636 -0.888446 9.895287 -14.816912 22.625833 -3.555976 6.194093 -1.321929 -8.423180 
1.723336 0.744050 0.988135 -85.370264 2.969041 88.495957 3.418247 0.371080 2.589709 -3.051529 -14.386912 4.695058 5.125811 7.828820 -18.072956 0.000000 -0.000000 0.000000 2.757172 -1.039983 -0.121484 2.860484 0.101694 10.857357 3.237781 -6.786618 -15.138484 0.000000 -0.000000 0.000000 -1.738784 0.197334 10.500786 1.850133 -3.072406 0.892716 1.427486 -2.457853 5.383557 3.315324 -4.503534 0.251444 -0.931764 -7.136128 -2.353216 -25.844891 7.384016 2.109032 -58.417461 -4.556212 5.765672 9.523859 -24.536315 4.961520 -4.344793 0.029144 -9.310378 22.966845 -5.129078 -1.603553 62.434084 -1.297208 9.778128 -14.589476 22.828021 -3.565375 6.032705 -1.511358 -8.091009 
1.723619 0.744731 0.987748 -85.304767 2.983067 89.194959 3.385395 0.223089 1.393122 -3.151201 -14.403259 5.529934 5.071347 8.049568 -18.413572 0.000000 -0.000000 0.000000 2.923518 -0.815874 -1.252510 2.717240 -0.076177 11.637624 3.214077 -7.064253 -15.667534 0.000000 -0.000000 0.000000 -1.614125 0.090065 11.156876 1.817645 -3.026874 0.658063 1.388520 -2.473001 5.545963 3.328190 -4.437957 -0.203179 -0.915938 -7.268590 -2.402688 -25.630564 7.415341 2.118925 -58.103068 -4.425757 5.716468 9.393001 -24.748917 4.918967 -4.544052 -0.155801 -9.427530 22.869398 -5.330968 -1.552695 62.186296 -1.642082 9.727692 -14.441054 23.113292 -3.553495 6.046941 -1.356262 -8.243885 
1.723261 0.745437 0.987508 -85.236816 2.895873 89.622398 3.024075 -0.067637 0.371234 -2.960717 -14.513823 6.771356 5.141894 8.541977 -19.186412 0.000000 -0.000000 0.000000 3.058206 -0.636271 -2.205346 2.596666 0.260509 12.725847 3.383629 -7.589259 -16.441303 0.000000 -0.000000 0.000000 -1.641876 0.078281 12.269084 1.846880 -2.963968 0.278569 1.422493 -2.569429 5.886917 3.557588 -4.437192 -1.163483 -0.968264 -7.624319 -2.172931 -25.618995 7.654325 1.711574 -57.560391 -4.226591 5.798518 8.865050 -25.068793 4.982747 -4.030209 -0.047072 -9.262784 22.994384 -5.545101 -1.960419 61.711762 -2.076260 9.987297 -14.109393 23.331506 -3.520001 5.703908 -1.114600 -7.981456 
1.723225 0.746314 0.986800 -85.303358 2.663370 90.342784 2.382253 -0.766030 -1.208174 -2.755326 -14.528560 8.567807 5.120532 9.380318 -19.894972 0.000000 -0.000000 0.000000 3.174208 -0.014083 -4.014613 2.179574 0.142737 14.803934 3.310138 -8.116947 -17.753551 0.000000 -0.000000 0.000000 -1.756612 0.050718 13.363657 1.812534 -2.925289 -0.285404 1.364192 -2.601087 6.225797 3.721870 -4.063132 -2.226934 -1.214672 -8.084228 -1.704722 -25.645748 7.769312 1.479024 -57.030309 -3.958837 6.029040 8.609139 -25.350926 4.881323 -3.871376 -0.241552 -9.139180 23.292572 -5.577054 -2.102856 61.316147 -2.312016 10.304551 -14.124316 23.431369 -3.773856 5.389436 -0.932297 -7.786859 
1.723330 0.748653 0.983697 -85.197439 2.974848 91.585858 2.510037 -1.959015 -4.324188 -2.834946 -13.905900 12.243196 3.985865 10.021490 -22.171099 0.000000 -0.000000 0.000000 4.354669 2.247845 -6.916651 0.930466 -0.795208 18.089217 3.553994 -9.529281 -19.688981 0.000000 -0.000000 0.000000 -1.677719 -0.058919 13.418292 2.469581 -2.945349 0.881101 1.181395 -2.401069 5.477124 3.728748 -4.101396 -1.474468 -1.085398 -8.253454 -5.039277 -25.201881 7.832573 1.102430 -57.148896 -3.890955 7.446100 7.853014 -25.086116 5.528644 -2.157406 -0.670679 -11.693292 22.650410 -6.054046 -2.872291 62.375341 -2.387494 11.002830 -14.607612 22.758466 -4.071555 2.931002 -0.197104 -6.618231 
1.724344 0.749800 0.978780 -85.068182 2.879792 92.659675 2.168186 -4.021223 -7.958609 -3.252426 -12.909197 17.265309 4.459990 11.464741 -23.881978 0.000000 -0.000000 0.000000 4.502345 3.272312 -10.373563 0.551221 -0.974002 22.535381 3.602646 -10.473668 -21.849187 0.000000 -0.000000 0.000000 -1.470934 -0.147245 14.911636 2.576417 -2.906927 -0.015306 0.951209 -2.578304 5.618228 3.878590 -4.105689 -2.485305 -1.129707 -8.555585 -5.451040 -24.811420 7.969043 1.140881 -57.324842 -3.638297 7.910102 7.856683 -25.545773 6.070116 -2.473127 -0.882662 -12.906144 22.427916 -6.245214 -3.126520 62.693814 -2.518076 11.587201 -14.735472 23.351373 -3.660856 3.257927 0.019103 -7.130416 
1.723673 0.751226 0.970144 -85.520363 2.913192 93.346472 2.204380 -5.306291 -11.562840 -4.094227 -11.544660 23.335652 4.875817 12.701545 -26.504733 0.000000 -0.000000 0.000000 4.699475 4.154354 -13.706431 0.269548 -0.862701 27.819252 3.785941 -11.093456 -24.338795 0.000000 -0.000000 0.000000 -1.235800 -0.078254 16.471409 2.631809 -2.531861 -0.787558 0.770364 -2.670802 5.908620 3.855313 -4.039027 -3.554198 -1.198828 -8.662095 -6.347041 -24.866459 7.613246 1.219254 -57.080637 -3.419805 8.002588 7.463363 -25.845889 6.434508 -2.268224 -0.791950 -13.231107 22.275339 -6.185648 -3.207821 62.743619 -2.491888 11.996842 -14.253769 24.367784 -3.061567 3.043417 -0.038655 -8.325506 
1.722460 0.752690 0.957326 -86.127651 2.868775 93.755399 2.210393 -6.291195 -15.021547 -5.118977 -10.372819 29.907564 5.700331 13.931282 -29.289220 0.000000 -0.000000 0.000000 4.601754 4.847742 -16.959728 0.352282 -0.925695 33.580947 3.560359 -11.505674 -26.900499 0.000000 -0.000000 0.000000 -1.211780 0.097940 18.406580 2.691074 -2.263981 -1.536818 0.690428 -2.610957 6.095465 3.806075 -3.757170 -5.122870 -1.442064 -8.930550 -6.557253 -25.094893 6.867515 1.229677 -56.918835 -3.207713 7.943870 7.663562 -25.694985 6.204592 -2.772948 -0.925629 -13.148004 22.471844 -5.505963 -3.104211 62.207607 -2.659307 12.277918 -14.105337 25.476826 -2.188105 4.229239 0.254505 -8.269757 
1.717954 0.753142 0.941948 -86.284570 2.977929 92.806167 2.083458 -6.293137 -16.683271 -6.063847 -9.984261 36.188053 5.913717 14.543460 -32.287170 0.000000 -0.000000 0.000000 4.609548 5.729098 -18.218501 0.311757 -1.715756 39.103749 3.641826 -11.932602 -29.692527 0.000000 -0.000000 0.000000 -1.106664 0.017710 20.971391 2.860643 -2.186719 -0.883555 0.761335 -2.354340 5.900451 3.979145 -3.981214 -6.750374 -1.479120 -9.509285 -8.157165 -25.576467 5.311006 0.977169 -56.867392 -3.129869 7.712152 7.889256 -25.222314 5.706009 -2.818511 -0.838830 -12.915111 22.596327 -3.856772 -3.439909 61.618565 -2.795383 12.333648 -13.781136 26.374325 -2.131354 4.543649 0.575781 -8.917585 
1.711953 0.754171 0.923940 -86.953804 2.994742 92.678836 2.252280 -6.138956 -18.994393 -6.893798 -8.726048 41.967804 6.104673 15.152741 -34.791527 0.000000 -0.000000 0.000000 4.611673 6.350893 -20.507510 0.444589 -1.714011 44.709570 3.333592 -12.320045 -32.160594 0.000000 -0.000000 0.000000 -1.294816 0.205928 22.415112 2.985139 -1.921715 -1.057813 0.696693 -2.396490 5.675636 4.116700 -3.968135 -7.495901 -1.717867 -9.698494 -8.341907 -26.064786 4.317087 1.071230 -56.772534 -3.101067 7.572500 8.218645 -24.166772 5.257514 -2.666668 -0.730907 -13.090593 23.091804 -2.357636 -3.306437 60.980699 -2.035679 12.625273 -13.454362 25.721245 -2.002330 4.623730 0.859740 -9.455954 
1.700323 0.754546 0.907809 -87.324577 2.652540 91.675623 1.653638 -6.133450 -19.233990 -7.505141 -8.202264 46.682595 6.113856 16.099153 -37.371378 0.000000 -0.000000 0.000000 4.871552 6.601014 -20.725107 0.290726 -1.189832 49.360432 3.049655 -13.413483 -34.791922 0.000000 -0.000000 0.000000 -1.760740 0.134044 24.102184 2.918095 -2.024634 -1.689440 0.678199 -2.469947 5.805039 4.625333 -4.193305 -8.518754 -1.800521 -10.218229 -8.427994 -26.531311 3.591668 1.151449 -56.312648 -2.776740 7.255646 7.868897 -23.465138 5.312183 -2.608704 -0.334885 -12.790369 23.846051 -1.006737 -3.570693 60.173307 -1.422341 12.932374 -12.735903 24.671746 -1.039702 4.144056 -0.069469 -7.456966 
1.683648 0.755042 0.897567 -88.193020 2.395897 91.340788 1.121668 -5.651039 -18.355219 -7.791354 -7.950746 48.802567 5.788346 16.970985 -39.255887 0.000000 -0.000000 0.000000 5.504347 6.781800 -20.134434 0.043265 0.073214 51.799987 3.373000 -14.275808 -36.470066 0.000000 -0.000000 0.000000 -1.922604 0.222715 24.202421 2.554109 -1.682460 -2.879959 0.447602 -2.534535 5.857723 4.863479 -4.490656 -8.433648 -1.868800 -10.036284 -8.085258 -27.038532 3.602031 1.513673 -55.280748 -1.892359 7.122366 6.790402 -23.876102 6.803714 -2.200287 0.037576 -11.631881 24.190343 -0.677100 -3.308418 59.506022 -2.017110 13.399152 -11.849392 26.202226 0.270814 4.108755 -0.460192 -7.700684 
